<?xml version="1.0" encoding="UTF-8" standalone="no"?>
<!-- Created with Inkscape (http://www.inkscape.org/) -->

<svg
   width="51.09499mm"
   height="129.17403mm"
   viewBox="0 0 51.09499 129.17403"
   version="1.1"
   id="svg1"
   xml:space="preserve"
   xmlns:inkscape="http://www.inkscape.org/namespaces/inkscape"
   xmlns:sodipodi="http://sodipodi.sourceforge.net/DTD/sodipodi-0.dtd"
   xmlns="http://www.w3.org/2000/svg"
   xmlns:svg="http://www.w3.org/2000/svg"><sodipodi:namedview
     id="namedview1"
     pagecolor="#ffffff"
     bordercolor="#000000"
     borderopacity="0.25"
     inkscape:showpageshadow="2"
     inkscape:pageopacity="0.0"
     inkscape:pagecheckerboard="0"
     inkscape:deskcolor="#d1d1d1"
     inkscape:document-units="mm" /><defs
     id="defs1" /><g
     inkscape:label="Layer 1"
     inkscape:groupmode="layer"
     id="layer1"
     transform="translate(-175.16466,-71.981314)"><path
       style="fill:#000000"
       d="m 201.76838,200.62678 c -0.11782,-0.30704 -0.62068,-0.58887 -1.11745,-0.62629 -0.49678,-0.0374 -1.23778,-0.37081 -1.64668,-0.74085 -0.4089,-0.37005 -0.98482,-0.67282 -1.27983,-0.67282 -0.32407,0 -0.43612,-0.31587 -0.28309,-0.79802 0.14872,-0.46859 -0.10737,-1.25653 -0.62037,-1.9087 -1.61306,-2.05067 -0.75482,-3.57015 1.73524,-3.07214 1.18002,0.23601 1.38858,0.16899 1.17841,-0.37869 -0.14044,-0.366 -0.0509,-0.86987 0.19891,-1.11971 0.73281,-0.73281 1.39996,-11.60248 1.41384,-23.03508 l 0.0129,-10.60932 -1.03528,-0.14637 c -0.78955,-0.11162 -0.97391,0.0136 -0.77672,0.52743 0.30721,0.80057 -0.53348,1.46077 -0.96697,0.75937 -0.31924,-0.51655 -4.0112,-0.41465 -5.34041,0.14741 -0.53035,0.22426 -0.75781,0.1224 -0.75781,-0.33936 0,-0.36289 0.24358,-0.76725 0.54129,-0.89859 0.29771,-0.13134 -0.0433,-0.19629 -0.75781,-0.14434 -0.97034,0.0705 -1.2669,0.28622 -1.17186,0.85226 0.086,0.51244 -0.15439,0.75781 -0.74257,0.75781 -0.4784,0 -1.07839,0.38973 -1.33332,0.86606 -0.29661,0.55422 -0.90669,0.86607 -1.69435,0.86607 -0.67696,0 -1.46231,0.2789 -1.74521,0.61978 -0.28291,0.34088 -1.05814,0.60432 -1.72275,0.58543 -0.66461,-0.0189 -1.48004,0.10528 -1.81208,0.27594 -0.33203,0.17066 0.071,-0.28764 0.89557,-1.01846 0.82459,-0.73082 1.2869,-1.32876 1.02734,-1.32876 -0.25955,0 -0.71449,0.2923 -1.01099,0.64955 -0.29649,0.35726 -0.78123,0.64955 -1.07721,0.64955 -0.29597,0 -1.06293,0.41282 -1.70437,0.91737 -0.64143,0.50455 -1.78819,1.06669 -2.54834,1.24919 -0.76015,0.18251 -1.77183,0.46316 -2.24816,0.62369 -0.47634,0.16052 -0.12878,-0.11733 0.77235,-0.61745 0.90114,-0.50013 1.52757,-1.08869 1.39207,-1.30794 -0.3152,-0.51 3.13053,-2.28798 3.72367,-1.9214 0.24501,0.15143 0.77771,-0.0254 1.18378,-0.39284 0.40606,-0.36749 1.61169,-1.06433 2.67917,-1.54853 1.06747,-0.4842 1.68578,-0.88465 1.37401,-0.88988 -0.31176,-0.005 -0.44641,-0.20437 -0.29922,-0.44254 0.32658,-0.52842 0.32684,-0.52841 -1.40437,-0.0319 -0.85829,0.24615 -1.49445,0.24615 -1.64658,0 -0.13635,-0.22063 0.22689,-0.40114 0.80721,-0.40114 0.58031,0 1.2977,-0.29229 1.59419,-0.64955 0.2965,-0.35725 0.6724,-0.64955 0.83534,-0.64955 0.16294,0 1.23789,-0.87689 2.38878,-1.94865 1.15089,-1.07175 1.94418,-1.94865 1.76287,-1.94865 -0.18132,0 -0.0622,-0.34101 0.26465,-0.75781 0.54926,-0.70035 0.52865,-0.71002 -0.27175,-0.12757 -0.47634,0.34663 -1.21643,0.92117 -1.64465,1.27676 -0.42822,0.35559 -1.07837,0.69052 -1.44477,0.7443 -0.58042,0.0852 -0.5754,-0.003 0.039,-0.6815 0.65984,-0.72911 0.63522,-0.79265 -0.38252,-0.9872 -0.59826,-0.11436 -0.99733,-0.0616 -0.88682,0.11717 0.11051,0.17881 -0.084,0.43444 -0.43227,0.56808 -0.95677,0.36715 -1.17441,-0.38157 -0.32595,-1.12129 1.50915,-1.31573 3.96383,-2.19609 3.34887,-1.20107 -0.15819,0.25596 0.0404,0.31106 0.49384,0.13705 0.47037,-0.1805 0.56012,-0.35712 0.23631,-0.46506 -0.28716,-0.0957 -0.39528,-0.37922 -0.24028,-0.63001 0.18918,-0.30611 -0.22924,-0.36012 -1.27302,-0.1643 -1.27566,0.23931 -1.6355,0.14094 -2.00417,-0.54792 -0.41522,-0.77584 -0.24435,-0.86543 2.25004,-1.17966 1.48466,-0.18704 3.23526,-0.37631 3.89022,-0.42061 2.87374,-0.19435 2.79036,-0.16626 1.94865,-0.65651 -0.41679,-0.24276 -0.75781,-0.60832 -0.75781,-0.81236 0,-0.51493 1.60289,-0.047 2.16691,0.63262 0.52263,0.62973 1.51091,0.45374 3.68971,-0.65708 1.28229,-0.65375 1.4028,-0.83936 0.84533,-1.30202 -0.45922,-0.38112 -0.51922,-0.69736 -0.20432,-1.0768 1.15327,-1.3896 -0.83611,-2.24803 -2.81684,-1.21548 -0.47634,0.24831 -1.07516,0.37563 -1.33071,0.28293 -0.25555,-0.0927 -0.82163,0.22594 -1.25796,0.70807 -0.43632,0.48213 -1.14599,0.8766 -1.57703,0.8766 -0.43104,0 -0.99476,0.39433 -1.25269,0.87629 -0.44066,0.82338 -0.51326,0.83202 -1.20221,0.14306 -0.53119,-0.53118 -0.58514,-0.7826 -0.19581,-0.91238 0.29558,-0.0985 0.53742,-0.38089 0.53742,-0.62748 0,-0.24659 -0.63331,0.027 -1.40736,0.60806 -2.16798,1.62735 -2.82003,1.92294 -1.88153,0.85296 l 0.82492,-0.94051 h -1.56914 c -1.17224,0 -1.50989,-0.15441 -1.33488,-0.61047 0.12884,-0.33576 0.71529,-0.7312 1.30322,-0.87876 1.65179,-0.41457 0.74369,-1.16955 -1.05714,-0.87889 -1.45935,0.23554 -1.52456,0.20364 -0.79302,-0.38795 0.5371,-0.43435 0.70413,-0.93745 0.51211,-1.54246 -0.23783,-0.74932 -0.10104,-0.89787 0.82679,-0.89787 0.61147,0 1.50149,-0.38973 1.97783,-0.86607 0.78882,-0.78881 0.79847,-0.87064 0.10826,-0.91737 -0.4168,-0.0282 -0.9867,-0.023 -1.26645,0.0115 -0.27975,0.0345 -0.63226,-0.13724 -0.78336,-0.38172 -0.15917,-0.25755 0.16907,-0.44452 0.78039,-0.44452 0.58031,0 1.28183,-0.27318 1.55893,-0.60706 0.2771,-0.33389 0.98299,-0.72733 1.56864,-0.87432 0.58566,-0.14699 1.06483,-0.45218 1.06483,-0.67821 0,-0.22602 0.53587,-0.72028 1.19084,-1.09834 l 1.19084,-0.68739 -1.46149,0.24052 c -0.80382,0.13229 -1.72943,0.24053 -2.05691,0.24053 -0.32748,0 -0.5467,0.23152 -0.48716,0.51448 0.0595,0.28296 -0.57377,0.64638 -1.40736,0.8076 -0.83359,0.16122 -1.85663,0.43772 -2.27342,0.61444 -0.54064,0.22923 -0.75781,0.12189 -0.75781,-0.37457 0,-0.39711 0.35635,-0.69588 0.82998,-0.69588 0.45649,0 0.89695,-0.20091 0.9788,-0.44647 0.0819,-0.24556 1.50205,-0.67071 3.15598,-0.94477 1.65394,-0.27407 2.79308,-0.56966 2.53143,-0.65688 -0.26164,-0.0872 -0.37336,-0.54998 -0.24826,-1.02837 0.1251,-0.47839 0.45525,-0.78238 0.73366,-0.67555 0.27841,0.10684 0.98354,-0.0701 1.56696,-0.3932 1.05579,-0.58469 1.0562,-0.58751 0.0864,-0.60279 -1.35227,-0.0213 -1.21666,-0.68929 0.32478,-1.59984 1.27241,-0.75164 1.7008,-1.44673 0.89162,-1.44673 -0.22411,0 -0.52883,0.19636 -0.67716,0.43635 -0.31115,0.50345 -1.51356,-0.52695 -1.51356,-1.29705 0,-0.26923 -0.22498,-0.35048 -0.49994,-0.18054 -0.30274,0.1871 -0.38268,0.11924 -0.20265,-0.17205 0.16351,-0.26456 0.58556,-0.37041 0.93788,-0.23521 0.45396,0.1742 0.56258,0.0425 0.37284,-0.45194 -0.34168,-0.89039 -3.3234,-0.9507 -4.04452,-0.0818 -0.57427,0.69195 -3.06095,1.67002 -3.05578,1.20191 0.006,-0.56058 3.40585,-2.25048 4.62931,-2.30113 0.73212,-0.0303 0.91277,-0.12877 0.4555,-0.24827 -0.80251,-0.20972 -1.05921,-1.0006 -0.32478,-1.0006 0.23817,0 0.43304,-0.27301 0.43304,-0.60669 0,-0.41285 0.48423,-0.59296 1.51561,-0.56373 0.83359,0.0236 1.51562,0.19921 1.51562,0.39018 0,0.5312 2.50648,0.41292 2.84464,-0.13424 0.43736,-0.70767 -0.72363,-1.25753 -1.63046,-0.7722 -0.51901,0.27776 -0.78115,0.26762 -0.78115,-0.0302 0,-0.24655 -0.30379,-0.44827 -0.6751,-0.44827 -0.37131,0 -0.57401,-0.16358 -0.45044,-0.36352 0.12357,-0.19994 -0.44187,-0.38858 -1.25653,-0.41921 -0.81466,-0.0306 -1.61065,0.15377 -1.76886,0.40976 -0.19381,0.31359 -0.40911,0.27376 -0.65993,-0.12209 -0.56528,-0.89212 -0.46223,-1.2364 0.37227,-1.2437 0.59033,-0.005 0.62796,-0.0889 0.17029,-0.37891 -0.41628,-0.26376 -0.44577,-0.45988 -0.1012,-0.67284 0.26748,-0.16531 0.37337,-0.48334 0.2353,-0.70674 -0.13806,-0.22339 0.0344,-0.5157 0.3833,-0.64958 0.34888,-0.13388 0.73272,-0.61966 0.85297,-1.07952 0.16386,-0.62657 -0.0154,-0.8487 -0.71513,-0.88635 -0.68045,-0.0366 -0.7372,-0.10222 -0.20917,-0.24188 0.39855,-0.1054 1.03865,-0.6709 1.42246,-1.25666 0.61784,-0.94295 0.62255,-1.09391 0.0411,-1.31703 -0.49978,-0.19178 -0.55149,-0.44863 -0.21638,-1.07478 0.34374,-0.64228 0.2945,-0.82278 -0.22444,-0.82278 -0.36564,0 -0.66479,-0.208 -0.66479,-0.46222 0,-0.27338 -0.39806,-0.34814 -0.97433,-0.18299 -0.67064,0.19219 -0.52898,-0.003 0.45447,-0.62704 1.39312,-0.88363 1.53136,-1.75899 0.27779,-1.75899 -0.3432,0 -0.624,-0.19486 -0.624,-0.43303 0,-0.23817 0.27145,-0.43304 0.60322,-0.43304 0.33177,0 0.70958,-0.27717 0.83958,-0.61593 0.14522,-0.37843 0.58255,-0.52541 1.13415,-0.38116 0.79082,0.2068 0.85157,0.1125 0.50987,-0.79142 -0.22736,-0.60148 -0.6776,-0.97354 -1.08782,-0.89896 -0.38494,0.07 -0.6999,-0.0762 -0.6999,-0.32478 0,-0.24861 0.28262,-0.452006 0.62804,-0.452006 0.34541,0 0.80845,-0.32241 1.02897,-0.71645 0.22696,-0.40555 0.68671,-0.6068 1.05946,-0.46376 0.47718,0.18311 0.70979,-0.0966 0.84468,-1.01568 0.12603,-0.85871 5.9e-4,-1.26838 -0.38839,-1.26838 -0.31601,0 -0.57456,-0.19487 -0.57456,-0.43304 0,-0.71175 -1.09854,-0.49204 -2.16516,0.43304 -1.05234,0.91269 -1.73214,1.10992 -1.73214,0.50254 0,-0.19994 0.46439,-0.57511 1.03197,-0.83372 0.56759,-0.25861 1.2958,-1.06622 1.61825,-1.7947 0.64357,-1.45392 1.65663,-2.07706 2.13042,-1.31045 0.38066,0.61593 1.79905,0.37048 2.03994,-0.35301 0.11447,-0.34378 -0.0701,-0.44548 -0.50541,-0.27844 -0.37715,0.14472 -0.68275,0.0961 -0.6791,-0.10797 0.0145,-0.81316 0.81408,-1.568393 1.78452,-1.685603 0.56296,-0.068 1.51073,-0.30991 2.10615,-0.53758 0.93717,-0.35836 0.7966,-0.4198 -1.04657,-0.45743 -1.17104,-0.0239 -2.33049,-0.24479 -2.57656,-0.49086 -0.30783,-0.30783 -0.27084,-0.44738 0.11858,-0.44738 0.31449,0 0.45974,-0.27686 0.32688,-0.62308 -0.16464,-0.429036 0.11621,-0.665041 0.90178,-0.757812 1.12848,-0.133266 1.13175,-0.143803 0.30102,-0.969866 -0.46191,-0.459325 -0.77489,-0.91401 -0.6955,-1.010412 0.0794,-0.0964 0.0353,-0.284359 -0.0981,-0.417685 -0.13332,-0.133325 -0.36528,0.07778 -0.51545,0.46912 -0.15017,0.391341 -0.54449,0.711529 -0.87626,0.711529 -1.04674,0 -0.6549,-0.770599 0.69588,-1.368513 0.86202,-0.381567 1.2991,-0.888119 1.2991,-1.505583 0,-0.942332 1.04875,-1.662079 1.77122,-1.215571 0.62572,0.386718 0.45864,-0.155215 -0.33284,-1.079602 -0.39974,-0.466858 -0.91701,-0.731275 -1.14949,-0.587593 -0.23433,0.14482 -0.285,0.03844 -0.11372,-0.238699 0.16994,-0.274968 1.06544,-0.499941 1.99,-0.499941 1.67361,0 2.5773,-0.560244 1.7392,-1.078218 -0.24205,-0.149598 -0.4401,-0.650225 -0.4401,-1.112506 0,-0.462281 -0.18875,-0.840511 -0.41944,-0.840511 -0.23069,0 -0.31926,0.261078 -0.19681,0.580173 0.12245,0.319094 -0.0785,0.830117 -0.44662,1.135606 -0.3681,0.305489 -0.66926,0.410281 -0.66926,0.232872 0,-0.177409 -0.29701,-0.07607 -0.66002,0.225202 -0.94932,0.787873 -1.34564,0.145234 -0.49208,-0.797936 0.39549,-0.437009 0.71907,-0.942847 0.71907,-1.124085 0,-0.467794 1.84956,-1.952327 2.45385,-1.969559 0.27787,-0.0079 0.59821,0.229175 0.71188,0.526885 0.11367,0.297711 0.17862,-0.36578 0.14434,-1.474424 -0.0343,-1.108644 0.0838,-1.92532 0.26245,-1.814836 0.17863,0.110484 0.32478,0.531026 0.32478,0.934538 0,0.403513 0.59028,1.290796 1.31175,1.971741 0.98369,0.928445 1.19562,1.378005 0.84742,1.797565 -0.60138,0.724617 -0.0802,2.807493 0.70249,2.807493 0.33143,0 0.6026,0.194865 0.6026,0.433033 0,0.238169 0.49867,0.433034 1.10815,0.433034 0.60947,0 0.99741,0.17916 0.86207,0.398135 -0.13533,0.218974 0.43777,0.623816 1.27355,0.899649 3.02734,0.999113 1.06583,1.440782 -2.91899,0.657261 -1.42414,-0.280024 -1.62388,-0.216888 -1.62388,0.51331 0,0.99577 1.51443,2.728047 2.38497,2.728047 0.35476,0 0.51907,0.260632 0.38484,0.610429 -0.14085,0.367056 0.12372,0.724042 0.6636,0.895394 0.49382,0.156731 1.09936,0.661496 1.34566,1.121706 0.36291,0.6781 0.30125,0.84646 -0.32524,0.88802 -0.42517,0.0282 -0.95534,0.0162 -1.17816,-0.0268 -0.7266,-0.14001 -2.4096,0.41574 -2.4096,0.79569 0,0.20386 0.62113,0.49488 1.3803,0.64671 1.0109,0.20218 1.25173,0.40462 0.8999,0.756453 -0.58348,0.58348 -0.23528,1.67395 0.53452,1.67395 0.30629,0 0.66906,0.2923 0.80615,0.64955 0.13709,0.35725 0.55917,0.64955 0.93795,0.64955 0.37878,0 0.56826,0.19487 0.42107,0.43303 -0.1472,0.23817 -0.65913,0.43304 -1.13763,0.43304 -0.8519,0 -0.85001,0.0281 0.0907,1.34922 0.5284,0.74206 1.95444,1.81192 3.16898,2.37745 2.15522,1.00354 2.24331,1.202116 0.47612,1.07329 -0.8131,-0.0593 -0.81973,-0.0263 -0.10826,0.539166 1.04845,0.83329 0.94884,1.15637 -0.35653,1.15637 -0.80747,0 -1.07578,0.1988 -0.97432,0.72192 0.077,0.39706 0.41071,0.81207 0.74158,0.92225 0.3651,0.12158 0.48272,0.008 0.29921,-0.28889 -0.45407,-0.73471 0.4492,-0.59131 2.33484,0.37067 2.27614,1.1612 2.47255,1.65146 0.57798,1.44268 -0.9361,-0.10316 -1.70567,0.0379 -1.89718,0.34779 -0.23958,0.38764 -0.50679,0.33676 -1.04199,-0.19844 -0.87432,-0.87432 -1.39537,-0.9588 -0.69286,-0.11234 0.38724,0.4666 0.37443,0.65274 -0.0552,0.8028 -0.78056,0.27261 0.83254,2.05403 1.85995,2.05403 0.4232,0 1.19847,0.60249 1.72282,1.33887 l 0.95336,1.33887 -1.03213,-0.54041 c -2.36363,-1.23757 -2.64163,-1.34047 -2.35099,-0.8702 0.1752,0.28349 -0.1311,0.465 -0.78467,0.465 -0.58963,0 -1.16291,-0.24358 -1.27396,-0.54129 -0.14029,-0.37609 -0.51108,-0.24392 -1.2149,0.43303 -0.95881,0.92222 -0.96732,0.97707 -0.15895,1.02564 0.46972,0.0282 1.10023,0.0191 1.40112,-0.0203 0.3009,-0.0394 0.66276,0.22982 0.80414,0.59825 0.14138,0.36842 0.54,0.66986 0.88583,0.66986 0.34583,0 0.50638,0.19804 0.35678,0.4401 -0.1496,0.24205 -0.45116,0.32936 -0.67014,0.19402 -0.21899,-0.13534 -0.28757,0.0421 -0.15242,0.39431 0.18679,0.48677 -0.24038,0.71328 -1.78076,0.94428 -1.36933,0.20534 -1.8368,0.4241 -1.44154,0.67458 0.66432,0.42098 0.28308,0.51464 -1.57336,0.38656 l -1.29226,-0.0892 1.07447,0.87005 c 0.59095,0.47852 1.18538,0.69057 1.32095,0.47122 0.13557,-0.21936 0.86689,-0.27475 1.62515,-0.1231 1.39223,0.27845 1.8071,0.81856 0.86896,1.13127 -0.99806,0.33269 0.15,1.27686 1.22462,1.00714 0.66817,-0.1677 1.29573,-0.0221 1.71583,0.39795 0.59444,0.59444 0.59258,0.66235 -0.0181,0.66235 -0.37427,0 -0.68049,0.19487 -0.68049,0.43303 0,0.23817 0.75862,0.43304 1.68581,0.43304 1.08268,0 1.77307,0.22742 1.92974,0.63568 0.32854,0.85617 -0.25238,1.14615 -2.35414,1.17516 -1.19573,0.0165 -1.62266,0.16629 -1.32432,0.46463 0.29834,0.29833 0.22461,0.65593 -0.22872,1.10926 -0.60329,0.60329 -0.70898,0.59752 -1.07626,-0.0588 -0.24667,-0.44079 -0.9437,-0.72776 -1.76762,-0.72776 -1.30181,0 -1.32418,0.0289 -0.51978,0.67197 0.81692,0.65306 0.81315,0.66443 -0.13375,0.40385 -0.53588,-0.14746 -0.97432,-0.11504 -0.97432,0.072 0,0.63907 2.37136,2.37929 3.56847,2.61871 1.29337,0.25867 1.64749,0.99679 0.47823,0.99679 -0.64734,0 -0.64175,0.0828 0.0579,0.85585 0.426,0.47072 0.94182,0.75247 1.14627,0.62612 0.20445,-0.12636 0.71429,-0.0303 1.13297,0.21356 0.41868,0.24381 0.59123,0.44922 0.38344,0.45647 -0.20779,0.007 -0.13713,0.30316 0.15703,0.65759 0.43313,0.52189 0.40204,0.69538 -0.16349,0.9124 -1.24719,0.47859 -0.73886,0.98765 0.96276,0.96417 2.31697,-0.032 5.12608,0.48763 6.49369,1.20116 l 1.15545,0.60284 -1.04712,0.003 c -0.57591,0.001 -2.2916,-0.21405 -3.81265,-0.47893 -1.52104,-0.26488 -2.89168,-0.35546 -3.04585,-0.20128 -0.39504,0.39504 1.87658,2.41501 2.71587,2.41501 0.3817,0 0.57883,0.18636 0.43807,0.41412 -0.14077,0.22777 -0.52229,0.31192 -0.84783,0.187 -0.32553,-0.12492 -0.72052,-0.019 -0.87775,0.23543 -0.17544,0.28387 0.18401,0.47528 0.93052,0.4955 1.19475,0.0324 1.18963,0.0426 -0.28774,0.57606 l -1.50415,0.54312 1.34121,0.26824 c 0.73766,0.14754 1.46545,0.59203 1.61731,0.98777 0.18398,0.47945 0.0939,0.64432 -0.27009,0.49412 -0.30042,-0.12398 -1.32567,-0.55675 -2.27834,-0.96172 l -1.73213,-0.73631 1.29316,1.20417 c 0.81678,0.76057 1.09495,1.27024 0.75511,1.38352 -0.77798,0.25933 -0.19741,0.97145 0.792,0.97145 0.46228,0 0.84051,0.21035 0.84051,0.46744 0,0.29826 -0.48981,0.35986 -1.35328,0.17021 -0.94086,-0.20664 -1.26299,-0.15115 -1.05702,0.18211 0.16293,0.26364 0.66297,0.47934 1.1112,0.47934 0.44822,0 0.93539,0.19487 1.08258,0.43304 0.16008,0.259 -0.39524,0.43832 -1.3818,0.4462 -1.45284,0.0116 -1.54621,0.0717 -0.78336,0.50428 0.91562,0.51922 1.57332,1.30132 1.31312,1.56152 -0.22213,0.22213 -2.51078,-1.24619 -3.15352,-2.02318 -0.48061,-0.581 -0.54129,-0.57746 -0.54129,0.0316 0,0.37729 0.31252,0.80591 0.69448,0.95248 0.40578,0.15572 0.58883,0.54182 0.44033,0.92879 -0.14617,0.38091 0.0293,0.77106 0.413,0.9183 0.36692,0.1408 0.56462,0.52316 0.43932,0.84967 -0.14821,0.38623 0.0886,0.59367 0.67769,0.59367 0.7329,0 0.80827,0.11715 0.39543,0.6146 -0.40262,0.48513 -0.34538,0.71808 0.27175,1.10584 0.66447,0.4175 0.57731,0.4675 -0.58064,0.33306 -0.98975,-0.11491 -1.30284,-0.003 -1.14451,0.40978 0.12511,0.32604 -0.084,0.56796 -0.4909,0.56796 -0.60052,0 -0.56207,0.19852 0.25162,1.2991 0.56209,0.76027 1.35651,1.2991 1.91529,1.2991 0.52515,0 1.06698,0.2923 1.20407,0.64955 0.13709,0.35725 0.53556,0.64955 0.88549,0.64955 0.34992,0 0.6102,0.34544 0.5784,0.76765 -0.0444,0.58914 -0.43816,0.76765 -1.69341,0.76765 -2.12831,0 -3.02732,0.81527 -1.85245,1.6799 0.76646,0.56407 0.77663,0.64591 0.11233,0.90353 -0.43472,0.16859 -0.63956,0.57559 -0.50594,1.00525 0.12349,0.39709 -0.1836,0.20499 -0.68243,-0.42688 -0.59815,-0.7577 -1.18732,-1.07554 -1.73041,-0.93352 -0.54541,0.14263 -0.99341,-0.10221 -1.32678,-0.72512 -0.3159,-0.59028 -0.75281,-0.84472 -1.17335,-0.68335 -0.36852,0.14142 -1.54731,-0.2332 -2.61953,-0.83248 -1.95736,-1.09399 -3.85594,-1.46542 -3.35604,-0.65656 0.1472,0.23817 0.0613,0.43303 -0.19096,0.43303 -0.97964,0 -0.12844,29.12703 0.9976,34.1364 0.41602,1.85074 0.92215,2.95573 1.55776,3.40094 0.52857,0.37021 0.83701,0.93185 0.70323,1.28048 -0.13107,0.34156 0.0287,0.72346 0.35496,0.84867 0.85571,0.32837 -0.066,3.20383 -1.02695,3.20383 -0.38874,0 -0.90084,0.19403 -1.138,0.43119 -0.23715,0.23716 -1.00687,0.50645 -1.71048,0.59844 -0.70361,0.092 -1.82785,0.38512 -2.49832,0.65139 -1.57201,0.62433 -2.00756,0.61011 -2.27012,-0.0741 z m -3.6559,-6.37029 c 0,-0.23817 -0.3038,-0.43303 -0.67511,-0.43303 -0.37131,0 -0.55467,0.19486 -0.40748,0.43303 0.1472,0.23817 0.451,0.43303 0.67511,0.43303 0.22411,0 0.40748,-0.19486 0.40748,-0.43303 z m -9.52674,-36.36122 c 0,-0.2307 -0.2923,-0.30728 -0.64955,-0.17019 -0.35725,0.13709 -0.64955,0.32584 -0.64955,0.41944 0,0.0936 0.2923,0.17019 0.64955,0.17019 0.35725,0 0.64955,-0.18875 0.64955,-0.41944 z m 3.03123,-2.00858 c 0,-0.0936 -0.29229,-0.17018 -0.64955,-0.17018 -0.35725,0 -0.64955,0.18875 -0.64955,0.41944 0,0.23069 0.2923,0.30728 0.64955,0.17019 0.35726,-0.13709 0.64955,-0.32584 0.64955,-0.41945 z m 28.89597,-0.43181 c -0.14389,-0.14389 -0.51738,-0.15927 -0.82998,-0.0342 -0.34545,0.13823 -0.24284,0.24084 0.26162,0.26162 0.45649,0.0188 0.71225,-0.0835 0.56836,-0.22744 z m -25.23367,-1.44058 c 0.13702,-0.22172 0.0511,-0.52551 -0.19097,-0.67511 -0.24205,-0.1496 -0.44009,0.0318 -0.44009,0.40311 0,0.76063 0.25984,0.87263 0.63106,0.272 z m 19.11707,-1.21175 c -0.44018,-0.44018 -0.80338,0.22254 -0.44222,0.80691 0.27283,0.44144 0.37482,0.44178 0.5215,0.002 0.10029,-0.30086 0.0646,-0.66475 -0.0793,-0.80865 z m 1.90354,0.0889 c 0,-0.33482 -0.43844,-0.84238 -0.97432,-1.12792 -0.86147,-0.45904 -0.90987,-0.441 -0.41784,0.1557 0.30607,0.37117 0.52657,0.84152 0.49001,1.04522 -0.13486,0.75139 0.0476,1.06389 0.46912,0.80339 0.23817,-0.1472 0.43303,-0.54157 0.43303,-0.87639 z m -25.33552,0.2318 c 0.15171,-0.24547 -0.0221,-0.31807 -0.40748,-0.17019 -0.75019,0.28788 -0.88745,0.59826 -0.26456,0.59826 0.22411,0 0.52653,-0.19263 0.67204,-0.42807 z m 22.29766,-0.32974 c -0.0128,-0.62569 -0.75158,-1.49093 -1.77526,-2.07909 -2.029,-1.16575 -2.23972,-1.20239 -2.76706,-0.48121 -0.8137,1.1128 -1.57365,0.89376 -1.25831,-0.36267 0.14944,-0.59543 0.16909,-1.08259 0.0437,-1.08259 -0.89916,0 -1.59798,0.68775 -1.59798,1.57267 0,1.18147 1.47464,1.96216 3.7253,1.97221 0.73898,0.003 1.61587,0.17839 1.94865,0.3891 0.74337,0.47068 1.68996,0.51099 1.68099,0.0716 z m -13.65558,-3.17013 c 0.25575,-0.25016 -0.0109,-0.4024 -0.70478,-0.4024 -0.61389,0 -1.38361,0.32463 -1.71049,0.72138 -0.53831,0.65341 -0.4719,0.69133 0.70479,0.40239 0.71451,-0.17544 1.48422,-0.50006 1.71048,-0.72137 z m 14.27658,-2.55944 c -0.6929,-0.6929 -3.21257,-1.06131 -3.21257,-0.46973 0,0.282 0.15545,0.41665 0.34545,0.29922 0.19,-0.11743 0.62844,-0.0345 0.97433,0.18433 0.86771,0.54892 2.44402,0.53741 1.89279,-0.0138 z m 1.98779,-1.51897 c -0.29432,-0.35463 -0.70272,-0.54121 -0.90755,-0.41461 -0.20484,0.1266 -0.71323,-0.16785 -1.12976,-0.65432 -0.41653,-0.48647 -1.16221,-0.88449 -1.65706,-0.88449 -0.49486,0 -1.12048,-0.22074 -1.39028,-0.49053 -0.26979,-0.2698 -0.80579,-0.36956 -1.1911,-0.2217 -0.57893,0.22215 -0.60278,0.37463 -0.13737,0.87811 0.30977,0.33511 0.69271,0.53109 0.851,0.43552 0.15828,-0.0956 0.35315,-0.0264 0.43303,0.15371 0.32246,0.72702 2.83278,1.82075 4.20383,1.83157 1.24478,0.01 1.38138,-0.0837 0.92526,-0.63326 z m -8.28135,-4.51171 c 0.47695,-0.30205 0.40283,-0.48527 -0.36186,-0.89452 -1.09851,-0.5879 -1.54397,-0.35229 -1.17109,0.61942 0.29024,0.75636 0.66644,0.82387 1.53295,0.2751 z m 7.1536,-0.73823 c 0.20507,-0.5344 0.40614,-0.58365 0.85658,-0.20982 0.39867,0.33087 0.92101,0.35546 1.61875,0.0762 0.92246,-0.36919 0.93837,-0.41515 0.15217,-0.43973 -0.48288,-0.0151 -1.26967,-0.30181 -1.74842,-0.63714 -0.47874,-0.33532 -2.32461,-0.73328 -4.10191,-0.88435 -2.70278,-0.22973 -3.3814,-0.4488 -4.14791,-1.33897 -1.21839,-1.41494 -1.46524,-1.3447 -1.46524,0.41692 0,1.32069 0.15252,1.51382 1.40736,1.78213 0.77405,0.16551 1.66115,0.50563 1.97134,0.75582 0.52778,0.42568 2.86721,1.01471 4.47783,1.12744 0.39132,0.0274 0.83207,-0.26445 0.97945,-0.64852 z m -23.60888,-2.80586 c -1.01713,-0.64417 -1.61448,-0.44356 -1.37752,0.4626 0.18605,0.71144 0.3716,0.77661 1.10055,0.38649 0.70519,-0.37741 0.75939,-0.54357 0.27697,-0.84909 z m 22.52066,-2.35769 c -0.39467,-0.39466 -0.97584,-0.54635 -1.4282,-0.37277 -0.60247,0.23119 -0.64137,0.36963 -0.18514,0.65883 0.31768,0.20138 0.96037,0.36913 1.4282,0.37278 0.76513,0.006 0.78373,-0.0602 0.18514,-0.65884 z m -19.70251,-0.45251 c 0.36545,-0.95237 0.33879,-1.04717 -0.29455,-1.04717 -0.30657,0 -0.58676,0.38973 -0.62264,0.86607 -0.0776,1.03081 0.54402,1.15356 0.91719,0.1811 z m 2.21149,0.25193 c 0.1472,-0.23817 -0.1451,-0.43303 -0.64955,-0.43303 -0.50444,0 -0.79674,0.19486 -0.64955,0.43303 0.1472,0.23817 0.4395,0.43303 0.64955,0.43303 0.21006,0 0.50236,-0.19486 0.64955,-0.43303 z m 16.6718,-4.34429 c 0,-0.48663 -1.81373,-1.31012 -2.16449,-0.98275 -0.24506,0.22872 1.27893,1.42974 1.81422,1.42974 0.19265,0 0.35027,-0.20115 0.35027,-0.44699 z m -10.39281,-9.94582 c 0,-1.35612 -0.59438,-1.63702 -1.73213,-0.81858 -0.55362,0.39824 -0.54089,0.43249 0.0862,0.23194 0.51577,-0.16496 0.66376,-0.0477 0.49497,0.39218 -0.13244,0.34512 -0.46353,0.63048 -0.73576,0.63413 -0.66316,0.009 0.65491,0.84434 1.34543,0.8528 0.31422,0.004 0.54129,-0.53834 0.54129,-1.29247 z m 7.79461,-1.92309 c 0,-0.10503 -0.19487,-0.31139 -0.43304,-0.45859 -0.23817,-0.1472 -0.43303,-0.0613 -0.43303,0.19096 0,0.25222 0.19486,0.45859 0.43303,0.45859 0.23817,0 0.43304,-0.0859 0.43304,-0.19096 z m -13.64056,-2.84027 c 0.34074,-0.55134 -0.66249,-0.55134 -1.51562,0 -0.52807,0.34126 -0.47211,0.42101 0.29922,0.4264 0.52182,0.004 1.0692,-0.18824 1.2164,-0.4264 z m -2.16517,-0.86607 c 0.34074,-0.55133 -0.66249,-0.55133 -1.51562,0 -0.52807,0.34127 -0.47211,0.42101 0.29922,0.4264 0.52183,0.004 1.0692,-0.18823 1.2164,-0.4264 z m 11.52411,-0.99057 c -0.35365,-0.35364 -0.48175,-0.30518 -0.48175,0.18224 0,0.36519 0.14209,0.80607 0.31575,0.97974 0.17367,0.17366 0.39045,0.0917 0.48175,-0.18224 0.0913,-0.27389 -0.0508,-0.71477 -0.31575,-0.97974 z m -9.99014,-4.79373 c -0.57819,-0.57819 -1.54774,0.29798 -1.11126,1.00423 0.22466,0.3635 0.46812,0.35553 0.9333,-0.0305 0.43662,-0.36236 0.49112,-0.66054 0.17796,-0.9737 z m 13.83872,0.61345 c 0,-0.46228 0.19215,-0.95926 0.42699,-1.1044 0.52455,-0.32419 0.28909,-2.21906 -0.25362,-2.04097 -0.21444,0.0704 -0.33298,0.48483 -0.26344,0.92102 0.0695,0.43619 -0.18638,0.91312 -0.56874,1.05985 -0.38235,0.14672 -0.5739,0.463 -0.42566,0.70285 0.14823,0.23986 0.0516,0.4361 -0.21463,0.4361 -0.26628,0 -0.36371,0.19486 -0.21651,0.43303 0.46452,0.75163 1.51561,0.46904 1.51561,-0.40748 z m -12.75668,-2.21953 c 0.46606,-0.7541 -0.0648,-0.91381 -0.65867,-0.19817 -0.34156,0.41155 -0.37441,0.66001 -0.0873,0.66001 0.25327,0 0.58894,-0.20783 0.74593,-0.46184 z m 15.78792,-4.47171 c 0,-0.0936 -0.30242,-0.28624 -0.67204,-0.42808 -0.38537,-0.14788 -0.55919,-0.0753 -0.40748,0.17019 0.2543,0.41147 1.07952,0.60861 1.07952,0.25789 z m -11.87232,-1.48208 c 0.60813,-0.86823 0.59828,-0.94482 -0.11981,-0.93233 -0.4303,0.007 -1.13261,0.49484 -1.5607,1.083 -0.76089,1.04541 -0.7582,1.06632 0.11981,0.93233 0.49398,-0.0754 1.19629,-0.56274 1.5607,-1.083 z m 9.15684,-1.20756 c -0.1439,-0.14389 -0.51739,-0.15928 -0.82998,-0.0342 -0.34545,0.13824 -0.24284,0.24085 0.26162,0.26163 0.45649,0.0188 0.71225,-0.0836 0.56836,-0.22744 z m -8.57161,-1.457016 c 0.5799,-0.15248 1.12691,-0.49485 1.21557,-0.76083 0.17141,-0.51424 -1.48395,-0.26566 -2.27117,0.34104 -0.23884,0.18408 -0.79366,0.0719 -1.23293,-0.24931 -1.03149,-0.75425 -1.97828,-0.38547 -1.70392,0.66369 0.21814,0.83414 0.83733,0.83497 3.99245,0.005 z m 1.45279,-3.04473 c 0.12456,-0.47633 0.0726,-0.86606 -0.11551,-0.86606 -0.18809,0 -0.4439,0.38973 -0.56847,0.86606 -0.12456,0.47634 -0.0726,0.86607 0.11551,0.86607 0.18809,0 0.4439,-0.38973 0.56847,-0.86607 z m 2.87157,-8.577966 c -0.0213,-0.455185 -0.11717,-0.526419 -0.2535,-0.188263 -0.12062,0.299195 -0.39754,0.433843 -0.61536,0.299219 -0.44747,-0.276552 -0.54457,0.379547 -0.11913,0.804977 0.43607,0.43608 1.0256,-0.11045 0.98799,-0.915933 z m -3.42185,-2.041266 c 0.45762,-0.551402 0.43083,-0.614768 -0.16349,-0.386704 -0.39094,0.150018 -0.7108,0.446776 -0.7108,0.659463 0,0.556864 0.25067,0.47866 0.87429,-0.272759 z m 21.22263,72.305268 c -0.82686,-0.58374 -1.39934,-1.06135 -1.27217,-1.06135 0.41671,0 3.85816,1.7472 3.85816,1.95876 0,0.49755 -1.19981,0.0812 -2.58599,-0.89741 z m -40.61942,-5.6401 c 0.41113,-0.43043 0.86626,-0.66385 1.01141,-0.5187 0.14516,0.14516 -0.19122,0.49733 -0.74749,0.78262 -0.96691,0.49587 -0.97852,0.48426 -0.26392,-0.26392 z m 3.86138,-46.4717 c -0.74187,-0.47007 -0.29572,-0.7262 1.88663,-1.08306 l 1.73213,-0.28324 -1.0223,0.87592 c -1.1126,0.95328 -1.69292,1.06289 -2.59646,0.49038 z"
       id="path1" /></g></svg>
