<?xml version="1.0" encoding="UTF-8" standalone="no"?>
<!-- Created with Inkscape (http://www.inkscape.org/) -->

<svg
   width="54.575752mm"
   height="47.568672mm"
   viewBox="0 0 54.575752 47.568672"
   version="1.1"
   id="svg1"
   xml:space="preserve"
   xmlns:inkscape="http://www.inkscape.org/namespaces/inkscape"
   xmlns:sodipodi="http://sodipodi.sourceforge.net/DTD/sodipodi-0.dtd"
   xmlns="http://www.w3.org/2000/svg"
   xmlns:svg="http://www.w3.org/2000/svg"><sodipodi:namedview
     id="namedview1"
     pagecolor="#ffffff"
     bordercolor="#000000"
     borderopacity="0.25"
     inkscape:showpageshadow="2"
     inkscape:pageopacity="0.0"
     inkscape:pagecheckerboard="0"
     inkscape:deskcolor="#d1d1d1"
     inkscape:document-units="mm" /><defs
     id="defs1" /><g
     inkscape:label="Layer 1"
     inkscape:groupmode="layer"
     id="layer1"
     transform="translate(70.590349,-207.46557)"><path
       id="path7"
       style="fill:none;fill-opacity:0.528421;stroke:#f9f9f9;stroke-width:2.11667;stroke-linecap:round;stroke-linejoin:round;stroke-dasharray:none;stroke-opacity:1"
       d="m -25.20987,214.39841 v 31.12705 l -8.136945,-8.13695 m 8.136945,-22.9901 v 31.12705 l 8.136945,-8.13695 M -54.743249,208.5239 a 14.788577,14.788577 0 0 0 -14.696261,13.49737 h -0.03617 v 0.50281 a 14.788577,14.788577 0 0 0 -0.05633,0.78806 14.788577,14.788577 0 0 0 0.05633,0.78859 v 14.29835 a 14.788577,14.788577 0 0 0 -0.05633,0.78806 14.788577,14.788577 0 0 0 0.05633,0.78859 v 0.25579 h 0.01809 a 14.788577,14.788577 0 0 0 14.714347,13.74438 14.788577,14.788577 0 0 0 14.713831,-13.74438 h 0.01809 v -0.25579 a 14.788577,14.788577 0 0 0 0.05633,-0.78859 14.788577,14.788577 0 0 0 -0.05633,-1.24747 v -13.83894 a 14.788577,14.788577 0 0 0 0.05633,-0.78859 14.788577,14.788577 0 0 0 -0.05633,-1.24747 v -0.0434 h -0.0031 A 14.788577,14.788577 0 0 0 -54.743246,208.5239 Z m 14.731916,22.4963 c -9.570745,1.76883 -19.406608,1.7481 -29.46435,0.2297 m 14.732247,-12.77132 1.86e-4,-9.95468 m -1.86e-4,9.95468 a 3.4585073,4.1553581 0 0 0 -3.436918,3.79255 h -0.0085 v 0.14128 a 3.4585073,4.1553581 0 0 0 -0.01317,0.22144 3.4585073,4.1553581 0 0 0 0.01317,0.22157 v 4.01761 a 3.4585073,4.1553581 0 0 0 -0.01317,0.22144 3.4585073,4.1553581 0 0 0 0.01317,0.22158 v 0.0719 h 0.0042 a 3.4585073,4.1553581 0 0 0 3.441147,3.86195 3.4585073,4.1553581 0 0 0 3.441027,-3.86195 h 0.0042 v -0.0719 a 3.4585073,4.1553581 0 0 0 0.01317,-0.22158 3.4585073,4.1553581 0 0 0 -0.01317,-0.35052 v -3.88853 a 3.4585073,4.1553581 0 0 0 0.01317,-0.22157 3.4585073,4.1553581 0 0 0 -0.01317,-0.35053 v -0.0122 h -7.25e-4 a 3.4585073,4.1553581 0 0 0 -3.444532,-3.79255 z"
       inkscape:export-filename="ScrollDownMouse.svg"
       inkscape:export-xdpi="96"
       inkscape:export-ydpi="96" /></g></svg>
